<?xml version="1.0" encoding="UTF-8" standalone="no"?>
<!-- Created with Inkscape (http://www.inkscape.org/) -->

<svg
   xmlns:dc="http://purl.org/dc/elements/1.1/"
   xmlns:cc="http://creativecommons.org/ns#"
   xmlns:rdf="http://www.w3.org/1999/02/22-rdf-syntax-ns#"
   xmlns:svg="http://www.w3.org/2000/svg"
   xmlns="http://www.w3.org/2000/svg"
   xmlns:xlink="http://www.w3.org/1999/xlink"
   xmlns:sodipodi="http://sodipodi.sourceforge.net/DTD/sodipodi-0.dtd"
   xmlns:inkscape="http://www.inkscape.org/namespaces/inkscape"
   width="43.276581mm"
   height="50.176876mm"
   viewBox="0 0 153.34222 177.79208"
   id="svg4935"
   version="1.1"
   inkscape:version="0.91 r13725"
   sodipodi:docname="logo.svg">
  <defs
     id="defs4937">
    <linearGradient
       inkscape:collect="always"
       xlink:href="#linearGradient4508"
       id="linearGradient4514"
       x1="74.822594"
       y1="126.06437"
       x2="210.06775"
       y2="124.52942"
       gradientUnits="userSpaceOnUse" />
    <linearGradient
       inkscape:collect="always"
       id="linearGradient4508">
      <stop
         style="stop-color:#ff9400;stop-opacity:1"
         offset="0"
         id="stop4510" />
      <stop
         style="stop-color:#ffff00;stop-opacity:1"
         offset="1"
         id="stop4512" />
    </linearGradient>
  </defs>
  <sodipodi:namedview
     id="base"
     pagecolor="#ffffff"
     bordercolor="#666666"
     borderopacity="1.0"
     inkscape:pageopacity="0.0"
     inkscape:pageshadow="2"
     inkscape:zoom="0.7"
     inkscape:cx="27.55128"
     inkscape:cy="20.477086"
     inkscape:document-units="px"
     inkscape:current-layer="layer1"
     showgrid="false"
     fit-margin-top="0"
     fit-margin-left="0"
     fit-margin-right="0"
     fit-margin-bottom="0"
     inkscape:window-width="1536"
     inkscape:window-height="801"
     inkscape:window-x="-8"
     inkscape:window-y="-8"
     inkscape:window-maximized="1" />
  <metadata
     id="metadata4940">
    <rdf:RDF>
      <cc:Work
         rdf:about="">
        <dc:format>image/svg+xml</dc:format>
        <dc:type
           rdf:resource="http://purl.org/dc/dcmitype/StillImage" />
        <dc:title></dc:title>
      </cc:Work>
    </rdf:RDF>
  </metadata>
  <g
     inkscape:label="Layer 1"
     inkscape:groupmode="layer"
     id="layer1"
     transform="translate(-303.3289,-260.60902)">
    <g
       transform="translate(176.3712,557.31329)"
       style="display:inline"
       id="g4832">
      <path
         transform="matrix(0.85471694,-0.0034465,0,0.85838759,99.434739,-316.03937)"
         inkscape:transform-center-y="-1.546058"
         inkscape:transform-center-x="0.34561627"
         d="m 211.60827,74.824 -0.0332,103.56153 -89.70351,51.75202 -89.670315,-51.80951 0.03319,-103.561527 89.703505,-51.752019 z"
         inkscape:randomized="0"
         inkscape:rounded="0"
         inkscape:flatsided="true"
         sodipodi:arg2="0.0003204856"
         sodipodi:arg1="-0.52327829"
         sodipodi:r2="103.56153"
         sodipodi:r1="103.56153"
         sodipodi:cy="126.57602"
         sodipodi:cx="121.90476"
         sodipodi:sides="6"
         id="path17178"
         style="color:#000000;display:inline;overflow:visible;visibility:visible;fill:url(#linearGradient4514);fill-opacity:1;fill-rule:nonzero;stroke:none;stroke-width:0;stroke-linecap:round;stroke-linejoin:miter;stroke-miterlimit:4;stroke-dasharray:none;stroke-dashoffset:0;stroke-opacity:1;marker:none;enable-background:accumulate"
         sodipodi:type="star" />
      <text
         sodipodi:linespacing="125%"
         id="text4603"
         y="-239.13792"
         x="156.61378"
         style="font-style:normal;font-variant:normal;font-weight:700;font-size:23.2175293px;line-height:125%;font-family:'AlternateGothic2 BT';text-align:start;letter-spacing:0px;word-spacing:0px;text-anchor:start;fill:#000000;fill-opacity:1;stroke:none"
         xml:space="preserve"><tspan
           id="tspan4605"
           y="-239.13792"
           x="156.61378"
           sodipodi:role="line"><tspan
             id="tspan4607"
             style="font-style:normal;font-variant:normal;font-weight:700;font-size:23.2175293px;font-family:'AlternateGothic2 BT';fill:#000000"
             dy="0"
             dx="0">electricShine</tspan></tspan></text>
      <path
         inkscape:connector-curvature="0"
         id="path4609"
         d="m 204.39413,-213.96114 0,0 -24.64406,14.3156 c -0.58081,0.34187 -1.33547,0.1353 -1.67735,-0.48406 -0.34841,-0.58046 -0.14184,-1.34167 0.44516,-1.68354 l 0,0 24.64406,-14.27704 c 0.61937,-0.34841 1.37438,-0.14185 1.71625,0.44516 0.30331,0.587 0.1353,1.34201 -0.48406,1.68388 z"
         style="fill:#000000;fill-opacity:1;fill-rule:evenodd;stroke:none" />
      <path
         inkscape:connector-curvature="0"
         id="path4611"
         d="m 204.39413,-213.96114 0,0 -24.64406,14.3156 c -0.58081,0.34187 -1.33547,0.1353 -1.67735,-0.48406 -0.34841,-0.58046 -0.14184,-1.34167 0.44516,-1.68354 l 0,0 24.64406,-14.27704 c 0.61937,-0.34841 1.37438,-0.14185 1.71625,0.44516 0.30331,0.587 0.1353,1.34201 -0.48406,1.68388 z"
         style="fill:none;stroke:#000000;stroke-width:0.05161104px;stroke-linecap:butt;stroke-linejoin:round;stroke-miterlimit:4;stroke-dasharray:none;stroke-opacity:1" />
      <path
         inkscape:connector-curvature="0"
         id="path4613"
         d="m 186.13684,-196.19411 c 0,-0.69029 -0.54844,-1.23873 -1.23872,-1.23873 -0.68375,0 -1.23873,0.54844 -1.23873,1.23873 l 0,15.78017 c 0,0.69028 0.55498,1.23872 1.23873,1.23872 0.69028,0 1.23872,-0.54844 1.23872,-1.23872 l 0,-15.78017 z m -5.78049,-4.58688 c 0,-0.65172 -0.5481,-1.20636 -1.23873,-1.20636 -0.68374,0 -1.23838,0.55464 -1.23838,1.20636 l 0,20.36705 c 0,0.69028 0.55464,1.23872 1.23838,1.23872 0.69063,0 1.23873,-0.54844 1.23873,-1.23872 l 0,-20.36705 z"
         style="fill:#000000;fill-opacity:1;fill-rule:evenodd;stroke:none" />
      <path
         inkscape:connector-curvature="0"
         id="path4615"
         d="m 186.13684,-196.19411 c 0,-0.69029 -0.54844,-1.23873 -1.23872,-1.23873 -0.68375,0 -1.23873,0.54844 -1.23873,1.23873 l 0,15.78017 c 0,0.69028 0.55498,1.23872 1.23873,1.23872 0.69028,0 1.23872,-0.54844 1.23872,-1.23872 l 0,-15.78017 z m -5.78049,-4.58688 c 0,-0.65172 -0.5481,-1.20636 -1.23873,-1.20636 -0.68374,0 -1.23838,0.55464 -1.23838,1.20636 l 0,20.36705 c 0,0.69028 0.55464,1.23872 1.23838,1.23872 0.69063,0 1.23873,-0.54844 1.23873,-1.23872 l 0,-20.36705 z"
         style="fill:none;stroke:#000000;stroke-width:0.05161104px;stroke-linecap:butt;stroke-linejoin:round;stroke-miterlimit:4;stroke-dasharray:none;stroke-opacity:1" />
      <path
         inkscape:connector-curvature="0"
         id="path4617"
         d="m 188.84015,-167.9888 0,0 15.55398,8.96752 c 0.61936,0.34187 0.78737,1.09688 0.48406,1.68388 -0.34842,0.61936 -1.10308,0.81939 -1.72245,0.47752 l 0,0 -15.55432,-8.99988 c -0.587,-0.34187 -0.79357,-1.10308 -0.44516,-1.68388 0.34188,-0.587 1.09654,-0.79357 1.68389,-0.44516 z"
         style="fill:#000000;fill-opacity:1;fill-rule:evenodd;stroke:none" />
      <path
         inkscape:connector-curvature="0"
         id="path4619"
         d="m 188.84015,-167.9888 0,0 15.55398,8.96752 c 0.61936,0.34187 0.78737,1.09688 0.48406,1.68388 -0.34842,0.61936 -1.10308,0.81939 -1.72245,0.47752 l 0,0 -15.55432,-8.99988 c -0.587,-0.34187 -0.79357,-1.10308 -0.44516,-1.68388 0.34188,-0.587 1.09654,-0.79357 1.68389,-0.44516 z"
         style="fill:none;stroke:#000000;stroke-width:0.05161104px;stroke-linecap:butt;stroke-linejoin:round;stroke-miterlimit:4;stroke-dasharray:none;stroke-opacity:1" />
      <path
         inkscape:connector-curvature="0"
         id="path4621"
         d="m 204.2781,-166.23399 c -0.60628,0.33567 -0.81285,1.09688 -0.47717,1.67734 0.34807,0.5808 1.09654,0.78703 1.7159,0.43896 l 12.46405,-7.18689 c 0.59354,-0.33568 0.78703,-1.09688 0.4517,-1.71625 -0.34842,-0.58046 -1.09689,-0.78703 -1.67735,-0.43861 l -12.47713,7.22545 z m -1.0838,7.22579 c -0.59354,0.33533 -0.79976,1.09654 -0.45169,1.67734 0.34841,0.61902 1.09688,0.81285 1.67734,0.47718 l 16.43844,-9.4836 c 0.5932,-0.34807 0.78703,-1.09654 0.45135,-1.67734 -0.34841,-0.58046 -1.09654,-0.78703 -1.67734,-0.45135 l -16.4381,9.45777 z"
         style="fill:#000000;fill-opacity:1;fill-rule:evenodd;stroke:none" />
      <path
         inkscape:connector-curvature="0"
         id="path4623"
         d="m 204.2781,-166.23399 c -0.60628,0.33567 -0.81285,1.09688 -0.47717,1.67734 0.34807,0.5808 1.09654,0.78703 1.7159,0.43896 l 12.46405,-7.18689 c 0.59354,-0.33568 0.78703,-1.09688 0.4517,-1.71625 -0.34842,-0.58046 -1.09689,-0.78703 -1.67735,-0.43861 l -12.47713,7.22545 z m -1.0838,7.22579 c -0.59354,0.33533 -0.79976,1.09654 -0.45169,1.67734 0.34841,0.61902 1.09688,0.81285 1.67734,0.47718 l 16.43844,-9.4836 c 0.5932,-0.34807 0.78703,-1.09654 0.45135,-1.67734 -0.34841,-0.58046 -1.09654,-0.78703 -1.67734,-0.45135 l -16.4381,9.45777 z"
         style="fill:none;stroke:#000000;stroke-width:0.05161104px;stroke-linecap:butt;stroke-linejoin:round;stroke-miterlimit:4;stroke-dasharray:none;stroke-opacity:1" />
      <path
         inkscape:connector-curvature="0"
         id="path4625"
         d="m 227.21935,-182.36224 0,0 0,-18.4122 c 0,-0.65827 0.56772,-1.21291 1.26454,-1.21291 0.70957,0 1.26421,0.55464 1.26421,1.21291 l 0,0 0,18.4122 c 0,0.68375 -0.55464,1.22565 -1.26421,1.22565 -0.69682,0 -1.26454,-0.5419 -1.26454,-1.22565 z"
         style="fill:#000000;fill-opacity:1;fill-rule:evenodd;stroke:none" />
      <path
         inkscape:connector-curvature="0"
         id="path4627"
         d="m 227.21935,-182.36224 0,0 0,-18.4122 c 0,-0.65827 0.56772,-1.21291 1.26454,-1.21291 0.70957,0 1.26421,0.55464 1.26421,1.21291 l 0,0 0,18.4122 c 0,0.68375 -0.55464,1.22565 -1.26421,1.22565 -0.69682,0 -1.26454,-0.5419 -1.26454,-1.22565 z"
         style="fill:none;stroke:#000000;stroke-width:0.05161104px;stroke-linecap:butt;stroke-linejoin:round;stroke-miterlimit:4;stroke-dasharray:none;stroke-opacity:1" />
      <path
         inkscape:connector-curvature="0"
         id="path4629"
         d="m 204.41995,-216.09018 c -0.58046,-0.34841 -1.32893,-0.14185 -1.67734,0.4517 -0.34807,0.58046 -0.14185,1.34166 0.45169,1.67734 l 24.69605,14.32214 c 0.58046,0.33533 1.32893,0.12876 1.67734,-0.4906 0.33533,-0.58046 0.14185,-1.34167 -0.45169,-1.67735 l -24.69605,-14.28323 z m 1.09688,7.29017 c -0.60628,-0.33567 -1.36783,-0.1291 -1.7159,0.45136 -0.33568,0.5808 -0.12911,1.34201 0.49026,1.69042 l 16.77342,9.72873 c 0.58081,0.30951 1.32893,0.14184 1.67735,-0.47752 0.33567,-0.58046 0.14184,-1.34201 -0.4517,-1.69008 l -16.77343,-9.70291 z"
         style="fill:#000000;fill-opacity:1;fill-rule:evenodd;stroke:none" />
      <path
         inkscape:connector-curvature="0"
         id="path4631"
         d="m 204.41995,-216.09018 c -0.58046,-0.34841 -1.32893,-0.14185 -1.67734,0.4517 -0.34807,0.58046 -0.14185,1.34166 0.45169,1.67734 l 24.69605,14.32214 c 0.58046,0.33533 1.32893,0.12876 1.67734,-0.4906 0.33533,-0.58046 0.14185,-1.34167 -0.45169,-1.67735 l -24.69605,-14.28323 z m 1.09688,7.29017 c -0.60628,-0.33567 -1.36783,-0.1291 -1.7159,0.45136 -0.33568,0.5808 -0.12911,1.34201 0.49026,1.69042 l 16.77342,9.72873 c 0.58081,0.30951 1.32893,0.14184 1.67735,-0.47752 0.33567,-0.58046 0.14184,-1.34201 -0.4517,-1.69008 l -16.77343,-9.70291 z"
         style="fill:none;stroke:#000000;stroke-width:0.05161104px;stroke-linecap:butt;stroke-linejoin:round;stroke-miterlimit:4;stroke-dasharray:none;stroke-opacity:1" />
      <path
         inkscape:connector-curvature="0"
         id="path4633"
         d="m 202.54912,-215.03874 0,0 0,-18.12178 c 0,-0.69032 0.587,-1.23865 1.23873,-1.23865 0.69028,0 1.23872,0.54833 1.23872,1.23865 l 0,0 0,18.12178 c 0,0.68409 -0.54844,1.23253 -1.23872,1.23253 -0.65173,0 -1.23873,-0.54844 -1.23873,-1.23253 z"
         style="fill:#000000;fill-opacity:1;fill-rule:evenodd;stroke:none" />
      <path
         inkscape:connector-curvature="0"
         id="path4635"
         d="m 202.54912,-215.03874 0,0 0,-18.12178 c 0,-0.69032 0.587,-1.23865 1.23873,-1.23865 0.69028,0 1.23872,0.54833 1.23872,1.23865 l 0,0 0,18.12178 c 0,0.68409 -0.54844,1.23253 -1.23872,1.23253 -0.65173,0 -1.23873,-0.54844 -1.23873,-1.23253 z"
         style="fill:none;stroke:#000000;stroke-width:0.05161104px;stroke-linecap:butt;stroke-linejoin:round;stroke-miterlimit:4;stroke-dasharray:none;stroke-opacity:1" />
      <path
         inkscape:connector-curvature="0"
         id="path4637"
         d="m 255.83746,-241.90859 c 0,3.7418 -0.503,6.76105 -1.12236,6.76105 l -49.81763,0 c -0.61937,0 -1.13544,3.03213 -1.13544,6.76105 0,-3.72892 -0.50335,-6.76105 -1.12236,-6.76105 l -49.8177,0 c -0.61933,0 -1.13544,-3.01925 -1.13544,-6.76105"
         style="fill:none;stroke:#000000;stroke-width:2.47733021px;stroke-linecap:butt;stroke-linejoin:miter;stroke-miterlimit:8;stroke-dasharray:none;stroke-opacity:1" />
      <text
         sodipodi:linespacing="125%"
         id="text4639"
         y="-169.76703"
         x="223.52023"
         style="font-style:normal;font-variant:normal;font-weight:700;font-size:10.32846451px;line-height:125%;font-family:'Arial Black';text-align:start;letter-spacing:0px;word-spacing:0px;text-anchor:start;fill:#000000;fill-opacity:1;stroke:none"
         xml:space="preserve"><tspan
           id="tspan4641"
           y="-169.76703"
           x="223.52023"
           sodipodi:role="line"><tspan
             id="tspan4643"
             style="font-style:normal;font-variant:normal;font-weight:700;font-size:10.32846451px;font-family:'Arial Black';fill:#000000"
             dy="0"
             dx="0">Electron</tspan></tspan></text>
      <text
         sodipodi:linespacing="125%"
         id="text4645"
         y="-169.76703"
         x="145.58101"
         style="font-style:normal;font-variant:normal;font-weight:700;font-size:10.32846451px;line-height:125%;font-family:'Arial Black';text-align:start;letter-spacing:0px;word-spacing:0px;text-anchor:start;fill:#000000;fill-opacity:1;stroke:none"
         xml:space="preserve"><tspan
           id="tspan4647"
           y="-169.76703"
           x="145.58101"
           sodipodi:role="line"><tspan
             id="tspan4649"
             style="font-style:normal;font-variant:normal;font-weight:700;font-size:10.32846451px;font-family:'Arial Black';fill:#000000"
             dy="0"
             dx="0">R/Shiny</tspan></tspan></text>
    </g>
  </g>
</svg>
